<svg xmlns="http://www.w3.org/2000/svg" width="255.232" height="101.12" viewBox="0 0 255.232 101.12">
  <g id="A_K_Logo_2" data-name="A_K Logo 2" transform="translate(0)">
    <path id="a_k" data-name="a &amp; k" d="M701.358,700.895l-5.69-17.948h3.644v-4.579H681.617v4.58h3.605l-5.281,17.948h-3.352v4.58h12v-4.58h-3.625l1.442-4.657h7.035l1.286,4.657h-3.469v4.58h13.33v-4.58h-3.235Zm-13.719-8.633,2.436-8.165,2.261,8.165Zm48.12,8.867-2.222-2.787a22.194,22.194,0,0,0,3.274-5.106h3.312v-4.346h-6.411a29.734,29.734,0,0,1-3.351,5.632l-3.859-4.892q4.716-2.4,4.716-6.158a4.78,4.78,0,0,0-2.066-3.975,8.359,8.359,0,0,0-5.183-1.559,8.682,8.682,0,0,0-5.232,1.559,5.159,5.159,0,0,0-2.153,4.444,7.563,7.563,0,0,0,2.124,4.931,16.619,16.619,0,0,0-5.817,4.072,7.3,7.3,0,0,0-1.666,4.677,7.783,7.783,0,0,0,2.621,5.846,9.843,9.843,0,0,0,7.045,2.475,12.783,12.783,0,0,0,8.75-3.469l2.454,3h8.029v-4.346ZM722,683.259a1.484,1.484,0,0,1,.653-1.218,2.453,2.453,0,0,1,1.53-.5,2.271,2.271,0,0,1,1.569.585,1.8,1.8,0,0,1,.653,1.384q0,1.54-2.611,2.709Q722,684,722,683.259Zm4.618,15.454a6.881,6.881,0,0,1-4.638,2.124A4.521,4.521,0,0,1,718.7,699.6a3.867,3.867,0,0,1-1.276-2.855q0-2.865,4.034-4.541Zm34.965,6.762v-4.58h-3.156V682.947h3.43v-4.579H747.727v4.58h3.645v17.948h-3.645v4.58Zm16.643,0v-4.58h-2.808l-8.891-10.478,7.644-7.47h3.313v-4.58H764.252v4.58h3.263l-8.875,8.292,8.217,9.656h-3.17v4.58Z" transform="translate(-599.685 -677.938)" fill="#060c17" fill-rule="evenodd"/>
    <path id="surfside" d="M191.415,1010.053v-2.187a6.056,6.056,0,0,0,5.2,2.5,7.737,7.737,0,0,0,5.242-1.92,7.172,7.172,0,0,0,2.215-5.727,7.814,7.814,0,0,0-.885-3.778,7.415,7.415,0,0,0-2.405-2.66,29.931,29.931,0,0,0-4.366-2.293,12.143,12.143,0,0,1-3.565-2.015,2.278,2.278,0,0,1-.609-1.5,1.8,1.8,0,0,1,.738-1.495,2.871,2.871,0,0,1,1.809-.572,3.423,3.423,0,0,1,2.427.988,4.375,4.375,0,0,1,1.246,2.8H202.8v-7.808h-4.337v2.132a5.461,5.461,0,0,0-4.744-2.39,7.044,7.044,0,0,0-4.78,1.849,6.574,6.574,0,0,0-2.1,5.214,6.114,6.114,0,0,0,1.591,4.438,22.466,22.466,0,0,0,6.047,3.789,11.219,11.219,0,0,1,2.9,1.829,2.713,2.713,0,0,1,.794,1.985,2.656,2.656,0,0,1-.812,1.928,2.693,2.693,0,0,1-1.993.821,3.782,3.782,0,0,1-2.695-1.135,4.926,4.926,0,0,1-1.255-3.535H187.06v8.75Zm27.473-21.337v11.609a24.646,24.646,0,0,0,.277,4.467,6.877,6.877,0,0,0,1.255,2.638,6.637,6.637,0,0,0,2.981,2.132,13.055,13.055,0,0,0,4.845.8,12.04,12.04,0,0,0,4.347-.729,7,7,0,0,0,2.889-1.9,5.659,5.659,0,0,0,1.273-2.362,18.616,18.616,0,0,0,.277-3.811V988.716h3.138v-4.338H229.944v4.338h2.492v11.278a18.5,18.5,0,0,1-.249,3.838,2.792,2.792,0,0,1-1.117,1.57,3.625,3.625,0,0,1-2.178.627,3.263,3.263,0,0,1-2.1-.664,2.76,2.76,0,0,1-1.024-1.69,20.2,20.2,0,0,1-.194-3.349V988.716H228.1v-4.338H215.843v4.338Zm55.989,17-4.171-7.751q4.448-2.012,4.448-6.386a7.385,7.385,0,0,0-1.929-4.993q-1.929-2.207-6.3-2.206H251.437v4.338h3.525v17h-3.525v4.339h13.418v-4.339h-3.212v-6.9h2.938l5.8,11.242H278.2v-4.339h-3.322Zm-13.234-17h2.9a4.307,4.307,0,0,1,2.667.738,2.629,2.629,0,0,1,.969,2.233q0,3.027-4.245,3.027h-2.289Zm41.685,21.337v-4.339h-3.95V999h5.556V994.66h-5.556v-5.943h7.715v3.58H312v-7.918H289.025v4.338H292.7v17h-3.673v4.339h14.3Zm25.018,0v-2.187a6.058,6.058,0,0,0,5.205,2.5,7.738,7.738,0,0,0,5.242-1.92,7.174,7.174,0,0,0,2.214-5.727,7.819,7.819,0,0,0-.884-3.778,7.425,7.425,0,0,0-2.406-2.66,29.953,29.953,0,0,0-4.367-2.293,12.133,12.133,0,0,1-3.564-2.015,2.275,2.275,0,0,1-.609-1.5,1.8,1.8,0,0,1,.738-1.495,2.87,2.87,0,0,1,1.809-.572,3.423,3.423,0,0,1,2.428.988,4.382,4.382,0,0,1,1.245,2.8h4.337v-7.808H335.4v2.132a5.461,5.461,0,0,0-4.744-2.39,7.043,7.043,0,0,0-4.78,1.849,6.574,6.574,0,0,0-2.1,5.214,6.116,6.116,0,0,0,1.591,4.438,22.447,22.447,0,0,0,6.047,3.789,11.179,11.179,0,0,1,2.9,1.829,2.713,2.713,0,0,1,.795,1.985,2.659,2.659,0,0,1-.812,1.928,2.694,2.694,0,0,1-1.994.821,3.785,3.785,0,0,1-2.695-1.135,4.932,4.932,0,0,1-1.255-3.535h-4.356v8.75Zm39.082,0v-4.339H363.5v-17h3.932v-4.338H352.922v4.338h3.894v17h-3.894v4.339Zm24.465,0a32.4,32.4,0,0,0,4.827-.259,13.3,13.3,0,0,0,3.423-1.135,9.983,9.983,0,0,0,3.2-2.362,12.127,12.127,0,0,0,2.244-3.913,14.534,14.534,0,0,0,.9-5.1,13.826,13.826,0,0,0-1.291-6.017,11.5,11.5,0,0,0-3.434-4.329,11.031,11.031,0,0,0-4.485-2.085,32.571,32.571,0,0,0-6.182-.471H378.939v4.338h3.894v17h-3.894v4.339h12.956Zm-2.4-21.337H391.1a11.434,11.434,0,0,1,4.53.774,5.789,5.789,0,0,1,2.825,2.825A10.916,10.916,0,0,1,399.5,997.3a10.462,10.462,0,0,1-1.035,4.993,5.8,5.8,0,0,1-2.74,2.666,11.579,11.579,0,0,1-4.623.757H389.5Zm52.574,21.337v-8.178h-4.909v3.839h-7.955v-6.736h6.422v-4.337h-6.422v-5.925h7.955v3.8h4.909v-8.139H419.442v4.338h3.082v17h-3.082v4.339Z" transform="translate(-186.838 -936.041)" fill="#e0a812" fill-rule="evenodd"/>
    <path id="real_estate_limited" data-name="real estate limited" d="M215.292,1273.228v-3.452h1.751l2.211,3.452h1.285l-2.358-3.543a2.631,2.631,0,0,0,.86-.223,2.531,2.531,0,0,0,.725-.495,2.243,2.243,0,0,0,.508-.788,2.826,2.826,0,0,0,.188-1.049,2.5,2.5,0,0,0-.767-1.914,2.775,2.775,0,0,0-1.981-.719h-3.509v8.731h1.086Zm0-7.759h2.289a1.772,1.772,0,0,1,1.269.46,1.724,1.724,0,0,1,0,2.409,1.765,1.765,0,0,1-1.265.466h-2.289Zm19.147,7.759v-.972h-4.634v-3.01h4.538v-.972h-4.538v-2.8h4.634v-.972h-5.72v8.731Zm8.609,0,.773-1.938h4.346l.773,1.938h1.241l-3.509-8.731h-1.349l-3.521,8.731h1.246Zm2.946-7.619,1.86,4.711h-3.707Zm16.866,7.619v-.972H258.8V1264.5h-1.086v8.731Zm23.647,0v-.972h-4.634v-3.01h4.538v-.972h-4.538v-2.8h4.634v-.972h-5.72v8.731h5.72Zm9.168-.215a4.718,4.718,0,0,0,1.927.374,4.584,4.584,0,0,0,1.492-.22,2.411,2.411,0,0,0,1.55-1.412,2.476,2.476,0,0,0,.179-.941,2.3,2.3,0,0,0-.176-.926,1.852,1.852,0,0,0-.477-.671,3.42,3.42,0,0,0-.688-.465,4.556,4.556,0,0,0-.814-.325l-.857-.25-.82-.24a3.993,3.993,0,0,1-.689-.267,1.292,1.292,0,0,1-.474-.391.914.914,0,0,1-.175-.556,1.22,1.22,0,0,1,.508-1.011,2.05,2.05,0,0,1,1.288-.391,3.194,3.194,0,0,1,2.524,1.05l.652-.8a4.083,4.083,0,0,0-3.087-1.222,3.359,3.359,0,0,0-2.157.678,2.251,2.251,0,0,0-.677,2.636,1.732,1.732,0,0,0,.476.636,3.383,3.383,0,0,0,.687.433,5.311,5.311,0,0,0,.814.311l.854.25.82.24a3.277,3.277,0,0,1,.693.284,1.347,1.347,0,0,1,.475.443,1.133,1.133,0,0,1,.176.63,1.366,1.366,0,0,1-.106.529,1.546,1.546,0,0,1-.332.484,1.632,1.632,0,0,1-.646.37,3.043,3.043,0,0,1-.975.141,3.4,3.4,0,0,1-1.563-.356,3.774,3.774,0,0,1-1.173-.9l-.652.839a4.09,4.09,0,0,0,1.423,1.019Zm15.476-7.543v7.759h1.087v-7.759h2.774v-.972H308.39v.972Zm12.181,7.759.773-1.938h4.346l.773,1.938h1.241l-3.509-8.731h-1.349l-3.521,8.731h1.246Zm2.946-7.619,1.86,4.711h-3.707Zm14.028-.14v7.759h1.087v-7.759h2.773v-.972h-6.62v.972Zm17.562,7.759v-.972h-4.632v-3.01h4.536v-.972h-4.536v-2.8h4.632v-.972h-5.719v8.731Zm23.2,0v-.972h-4.058V1264.5h-1.087v8.731Zm9.082,0V1264.5h-1.087v8.731Zm9.67,0v-7.344l2.971,7.344h.441l2.958-7.344v7.344h1.087V1264.5h-1.559l-2.709,6.73-2.723-6.73h-1.553v8.731Zm17.127,0V1264.5h-1.087v8.731Zm10.744-7.759v7.759h1.087v-7.759h2.773v-.972h-6.62v.972Zm17.562,7.759v-.972h-4.634v-3.01h4.538v-.972h-4.538v-2.8h4.634v-.972h-5.72v8.731Zm11.254,0a4.969,4.969,0,0,0,1.843-.333,4.054,4.054,0,0,0,1.416-.914,4.121,4.121,0,0,0,.9-1.383,4.654,4.654,0,0,0,.319-1.729,4.537,4.537,0,0,0-.543-2.224,3.959,3.959,0,0,0-1.572-1.57,4.738,4.738,0,0,0-2.359-.578h-2.984v8.731h2.984Zm-1.9-7.759h1.9a3.47,3.47,0,0,1,1.818.46,2.934,2.934,0,0,1,1.151,1.22,3.8,3.8,0,0,1,.38,1.719,3.714,3.714,0,0,1-.386,1.707,2.976,2.976,0,0,1-1.16,1.22,3.461,3.461,0,0,1-1.8.46h-1.9Z" transform="translate(-209.909 -1172.268)" fill="#e0a812" fill-rule="evenodd"/>
  </g>
</svg>
