<svg xmlns="http://www.w3.org/2000/svg" xmlns:xlink="http://www.w3.org/1999/xlink" width="469.424" height="145.05" viewBox="0 0 469.424 145.05">
  <defs>
    <linearGradient id="linear-gradient" x1="1.864" y1="0.508" x2="-1.043" y2="0.491" gradientUnits="objectBoundingBox">
      <stop offset="0.219" stop-color="#0bb5ff"/>
      <stop offset="1" stop-color="#002cff"/>
    </linearGradient>
  </defs>
  <g id="Ayuda" transform="translate(-770.408 -22.397)">
    <g id="yuda">
      <path id="Path_2616" data-name="Path 2616" d="M893.626,51.2h28.051l13.072,44.254a43.539,43.539,0,0,1,1.293,8.374h.545a46.314,46.314,0,0,1,1.634-8.238L951.633,51.2H978.8l-30.5,82.04q-5.856,15.66-14.4,22.128t-22.3,6.468a53.56,53.56,0,0,1-10.893-1.158v-20.9a37.528,37.528,0,0,0,8.238.817,13.412,13.412,0,0,0,6.2-1.362,14.115,14.115,0,0,0,4.63-3.847,33.805,33.805,0,0,0,4.221-8.136Z" fill="navy"/>
      <path id="Path_2617" data-name="Path 2617" d="M1042.934,128.335l-3.336-9.6h-1.566a21.665,21.665,0,0,1-9.294,8.136,32.355,32.355,0,0,1-13.991,2.825q-12.732,0-19.812-7.387t-7.081-20.868V51.2h26.621V93.34q0,7.559,2.144,11.439t7.047,3.88q6.876,0,9.8-5.412t2.928-18.281V51.2h26.62v77.138Z" fill="navy"/>
      <path id="Path_2618" data-name="Path 2618" d="M1105.367,129.7a23.077,23.077,0,0,1-14.4-4.7q-6.164-4.7-9.532-13.821a61.385,61.385,0,0,1-3.37-21.31q0-18.79,7.557-29.412t20.766-10.621a23.818,23.818,0,0,1,11.336,2.587,25.079,25.079,0,0,1,8.885,8.715h.544a127.959,127.959,0,0,1-1.293-18.111V22.4h26.825V128.335H1132.6l-5.719-9.735h-1.021Q1118.983,129.7,1105.367,129.7Zm10.893-21.038q6.4,0,9.021-4.017t2.826-12.391V90.14q0-10.212-2.928-14.535t-9.191-4.324q-5.244,0-8.136,4.936t-2.894,14.06q0,8.986,2.928,13.685A9.314,9.314,0,0,0,1116.26,108.659Z" fill="navy"/>
      <path id="Path_2619" data-name="Path 2619" d="M1221.381,128.335l-5.106-10.212h-.545q-5.379,6.673-10.961,9.123t-14.434,2.451q-10.893,0-17.157-6.536t-6.264-18.382q0-12.322,8.579-18.349t24.85-6.774l12.868-.409V78.158q0-9.531-9.4-9.532-8.444,0-21.446,5.719l-7.694-17.566q13.48-6.943,34.042-6.944,14.841,0,22.978,7.353t8.136,20.561v50.586Zm-19.744-17.429a12,12,0,0,0,8.272-3.064,10.169,10.169,0,0,0,3.439-7.965V93.885l-6.128.272q-13.14.477-13.14,9.668Q1194.08,110.908,1201.637,110.906Z" fill="navy"/>
    </g>
    <path id="Official_Icon_Ayuda" data-name="Official Icon Ayuda" d="M832.3,58.008A40.159,40.159,0,1,0,872.608,98.06,40.222,40.222,0,0,0,832.3,58.008ZM812.818,98.122a19.415,19.415,0,1,1,19.239,19.4A19.414,19.414,0,0,1,812.818,98.122Zm81.241.016v61.826L876.318,141.47a61.891,61.891,0,1,1,17.741-43.332Z" fill="url(#linear-gradient)"/>
    <g id="_...here_to_help" data-name="...here to help">
      <path id="Path_2620" data-name="Path 2620" d="M961.378,158.414a2.4,2.4,0,0,1,.635-1.807,2.572,2.572,0,0,1,1.851-.612,2.5,2.5,0,0,1,1.815.626,2.782,2.782,0,0,1-.007,3.564,2.453,2.453,0,0,1-1.808.647,2.524,2.524,0,0,1-1.837-.633A2.378,2.378,0,0,1,961.378,158.414Z" fill="#0bb5ff"/>
      <path id="Path_2621" data-name="Path 2621" d="M969.627,158.414a2.4,2.4,0,0,1,.636-1.807,2.567,2.567,0,0,1,1.85-.612,2.5,2.5,0,0,1,1.815.626,2.779,2.779,0,0,1-.007,3.564,2.451,2.451,0,0,1-1.808.647,2.521,2.521,0,0,1-1.836-.633A2.375,2.375,0,0,1,969.627,158.414Z" fill="#0bb5ff"/>
      <path id="Path_2622" data-name="Path 2622" d="M977.876,158.414a2.4,2.4,0,0,1,.636-1.807,2.569,2.569,0,0,1,1.85-.612,2.493,2.493,0,0,1,1.815.626,2.779,2.779,0,0,1-.007,3.564,2.451,2.451,0,0,1-1.808.647,2.521,2.521,0,0,1-1.836-.633A2.378,2.378,0,0,1,977.876,158.414Z" fill="#0bb5ff"/>
      <path id="Path_2623" data-name="Path 2623" d="M1001.31,160.448H997v-9.289q0-3.442-2.543-3.443a2.883,2.883,0,0,0-2.613,1.238,7.6,7.6,0,0,0-.8,4.011v7.483h-4.308V138.312h4.308v4.51q0,.526-.1,2.475l-.1,1.281h.226a4.98,4.98,0,0,1,4.577-2.333,5.572,5.572,0,0,1,4.224,1.508,6.018,6.018,0,0,1,1.44,4.324Z" fill="#0bb5ff"/>
      <path id="Path_2624" data-name="Path 2624" d="M1012.893,160.733a7.411,7.411,0,0,1-8.108-8.123,8.871,8.871,0,0,1,1.985-6.182,7.042,7.042,0,0,1,5.487-2.183,6.93,6.93,0,0,1,5.213,1.92,7.3,7.3,0,0,1,1.864,5.306v2.106H1009.15a4.192,4.192,0,0,0,1.087,2.888,3.816,3.816,0,0,0,2.854,1.038,11.779,11.779,0,0,0,2.7-.3,13.459,13.459,0,0,0,2.655-.954v3.358a10.075,10.075,0,0,1-2.415.846A15.116,15.116,0,0,1,1012.893,160.733Zm-.607-13.4a2.719,2.719,0,0,0-2.147.875,4.061,4.061,0,0,0-.89,2.482h6.046a3.635,3.635,0,0,0-.834-2.482A2.809,2.809,0,0,0,1012.286,147.332Z" fill="#0bb5ff"/>
      <path id="Path_2625" data-name="Path 2625" d="M1031.652,144.245a6.865,6.865,0,0,1,1.455.128l-.325,4.068a4.949,4.949,0,0,0-1.272-.142,4.547,4.547,0,0,0-3.213,1.067,3.869,3.869,0,0,0-1.151,2.988v8.094h-4.309v-15.9h3.263l.636,2.675h.212a5.959,5.959,0,0,1,1.984-2.155A4.866,4.866,0,0,1,1031.652,144.245Z" fill="#0bb5ff"/>
      <path id="Path_2626" data-name="Path 2626" d="M1043.122,160.733a7.411,7.411,0,0,1-8.108-8.123,8.87,8.87,0,0,1,1.984-6.182,7.044,7.044,0,0,1,5.488-2.183,6.928,6.928,0,0,1,5.212,1.92,7.293,7.293,0,0,1,1.865,5.306v2.106h-10.184a4.192,4.192,0,0,0,1.087,2.888,3.812,3.812,0,0,0,2.853,1.038,11.78,11.78,0,0,0,2.7-.3,13.458,13.458,0,0,0,2.655-.954v3.358a10.107,10.107,0,0,1-2.415.846A15.124,15.124,0,0,1,1043.122,160.733Zm-.608-13.4a2.721,2.721,0,0,0-2.147.875,4.067,4.067,0,0,0-.89,2.482h6.046a3.635,3.635,0,0,0-.833-2.482A2.81,2.81,0,0,0,1042.514,147.332Z" fill="#0bb5ff"/>
      <path id="Path_2627" data-name="Path 2627" d="M1067.234,157.276a9.282,9.282,0,0,0,2.712-.5v3.229a9.607,9.607,0,0,1-3.955.726,4.823,4.823,0,0,1-3.765-1.316,5.756,5.756,0,0,1-1.179-3.948V147.8h-2.063v-1.835l2.374-1.451,1.243-3.357h2.754v3.385h4.421V147.8h-4.421v7.668a1.7,1.7,0,0,0,.516,1.366A2.023,2.023,0,0,0,1067.234,157.276Z" fill="#0bb5ff"/>
      <path id="Path_2628" data-name="Path 2628" d="M1087.49,152.467a8.587,8.587,0,0,1-2.034,6.075,7.351,7.351,0,0,1-5.665,2.191,7.883,7.883,0,0,1-4.011-1,6.656,6.656,0,0,1-2.67-2.881,9.732,9.732,0,0,1-.932-4.382,8.536,8.536,0,0,1,2.02-6.06,7.389,7.389,0,0,1,5.678-2.162,7.936,7.936,0,0,1,4.012,1,6.642,6.642,0,0,1,2.67,2.86A9.653,9.653,0,0,1,1087.49,152.467Zm-10.919,0a6.707,6.707,0,0,0,.77,3.571,2.747,2.747,0,0,0,2.507,1.209,2.7,2.7,0,0,0,2.479-1.2,6.808,6.808,0,0,0,.756-3.578,6.611,6.611,0,0,0-.763-3.542,3.228,3.228,0,0,0-4.986-.007A6.6,6.6,0,0,0,1076.571,152.467Z" fill="#0bb5ff"/>
      <path id="Path_2629" data-name="Path 2629" d="M1113.142,160.448h-4.309v-9.289q0-3.442-2.542-3.443a2.884,2.884,0,0,0-2.614,1.238,7.609,7.609,0,0,0-.805,4.011v7.483h-4.308V138.312h4.308v4.51q0,.526-.1,2.475l-.1,1.281h.226a4.978,4.978,0,0,1,4.576-2.333,5.572,5.572,0,0,1,4.224,1.508,6.019,6.019,0,0,1,1.441,4.324Z" fill="#0bb5ff"/>
      <path id="Path_2630" data-name="Path 2630" d="M1124.725,160.733a7.411,7.411,0,0,1-8.108-8.123,8.87,8.87,0,0,1,1.984-6.182,7.043,7.043,0,0,1,5.488-2.183,6.928,6.928,0,0,1,5.212,1.92,7.3,7.3,0,0,1,1.865,5.306v2.106h-10.185a4.192,4.192,0,0,0,1.088,2.888,3.812,3.812,0,0,0,2.853,1.038,11.772,11.772,0,0,0,2.7-.3,13.443,13.443,0,0,0,2.656-.954v3.358a10.1,10.1,0,0,1-2.416.846A15.112,15.112,0,0,1,1124.725,160.733Zm-.608-13.4a2.721,2.721,0,0,0-2.147.875,4.062,4.062,0,0,0-.89,2.482h6.046a3.63,3.63,0,0,0-.834-2.482A2.808,2.808,0,0,0,1124.117,147.332Z" fill="#0bb5ff"/>
      <path id="Path_2631" data-name="Path 2631" d="M1138.977,160.448h-4.308V138.312h4.308Z" fill="#0bb5ff"/>
      <path id="Path_2632" data-name="Path 2632" d="M1152.17,160.733a5.219,5.219,0,0,1-4.364-2.035h-.226q.225,1.992.226,2.305v6.444H1143.5v-22.9h3.5l.607,2.063h.2a4.973,4.973,0,0,1,4.477-2.361,5.111,5.111,0,0,1,4.379,2.176,10.119,10.119,0,0,1,1.582,6.046,12.028,12.028,0,0,1-.741,4.425,6.206,6.206,0,0,1-2.112,2.859A5.389,5.389,0,0,1,1152.17,160.733Zm-1.271-13.017a2.711,2.711,0,0,0-2.331.989,5.7,5.7,0,0,0-.762,3.264v.47a6.738,6.738,0,0,0,.755,3.67,2.691,2.691,0,0,0,2.4,1.11q2.895,0,2.895-4.809a6.914,6.914,0,0,0-.713-3.521A2.431,2.431,0,0,0,1150.9,147.716Z" fill="#0bb5ff"/>
    </g>
  </g>
</svg>
