<?xml version="1.0" encoding="UTF-8"?>
<svg width="139px" height="48px" viewBox="0 0 139 48" version="1.1" xmlns="http://www.w3.org/2000/svg" xmlns:xlink="http://www.w3.org/1999/xlink">
    <!-- Generator: Sketch 52.3 (67297) - http://www.bohemiancoding.com/sketch -->
    <title>Logo</title>
    <desc>Created with Sketch.</desc>
    <g id="Page-3" stroke="none" stroke-width="1" fill="none" fill-rule="evenodd">
        <g id="Homepage" transform="translate(-380.000000, -25.000000)" fill="#FFFFFF">
            <g id="Landing">
                <g id="Navigation-Bar" transform="translate(381.000000, 25.000000)">
                    <g id="Logo">
                        <path d="M3.2,44.778 C3.2,45.5926707 2.8100039,46 2.03,46 C1.83933238,46 1.70933368,45.9436672 1.64,45.831 C1.57066632,45.7183328 1.536,45.558001 1.536,45.35 C1.536,44.4486622 1.56199974,43.5126715 1.614,42.542 C1.66600026,41.5713285 1.692,40.5400055 1.692,39.448 L1.692,37.94 C1.692,37.402664 1.68766671,36.8740026 1.679,36.354 C1.67033329,35.8339974 1.65733342,35.3486689 1.64,34.898 C1.62266658,34.4473311 1.60533342,34.057335 1.588,33.728 C1.588,33.519999 1.53166723,33.3423341 1.419,33.195 C1.30633277,33.0476659 1.17633407,32.9176672 1.029,32.805 C0.88166593,32.6923328 0.75166723,32.5840005 0.639,32.48 C0.52633277,32.3759995 0.47,32.2546674 0.47,32.116 C0.47,32.0639997 0.50899961,31.9773339 0.587,31.856 C0.66500039,31.7346661 0.76899935,31.6090006 0.899,31.479 C1.02900065,31.3489993 1.1806658,31.2320005 1.354,31.128 C1.5273342,31.0239995 1.70933238,30.972 1.9,30.972 C2.05600078,30.972 2.24666554,31.0066663 2.472,31.076 C2.69733446,31.1453337 2.91399896,31.2276662 3.122,31.323 C3.33000104,31.4183338 3.50766593,31.5179995 3.655,31.622 C3.80233407,31.7260005 3.876,31.8213329 3.876,31.908 C3.876,32.0640008 3.81100065,32.2893319 3.681,32.584 C3.55099935,32.8786681 3.47733342,33.2339979 3.46,33.65 C3.46,34.2740031 3.45566671,34.9239966 3.447,35.6 C3.43833329,36.2760034 3.41666684,36.9346635 3.382,37.576 L10.298,37.576 C10.3153334,37.2293316 10.3283333,36.8393355 10.337,36.406 C10.3456667,35.9726645 10.35,35.5306689 10.35,35.08 C10.35,34.4733303 10.3240003,33.9186692 10.272,33.416 C10.2199997,32.9133308 10.194,32.5406679 10.194,32.298 C10.194,32.1766661 10.2806658,32.0640005 10.454,31.96 C10.6273342,31.8559995 10.8309988,31.7650004 11.065,31.687 C11.2990012,31.6089996 11.5373321,31.5483335 11.78,31.505 C12.0226679,31.4616664 12.2219992,31.44 12.378,31.44 C12.7246684,31.44 12.898,31.5613321 12.898,31.804 C12.898,31.8733337 12.8763336,31.9469996 12.833,32.025 C12.7896665,32.1030004 12.7420003,32.1983328 12.69,32.311 C12.6379997,32.4236672 12.5773337,32.5666658 12.508,32.74 C12.4386663,32.9133342 12.3780003,33.1386653 12.326,33.416 C12.2739997,33.7280016 12.2306668,34.0659982 12.196,34.43 C12.1613332,34.7940018 12.1353334,35.1623315 12.118,35.535 C12.1006666,35.9076685 12.0876667,36.2716649 12.079,36.627 C12.0703333,36.9823351 12.066,37.2899987 12.066,37.55 C12.2046674,37.5326666 12.3476659,37.5196667 12.495,37.511 C12.6423341,37.5023333 12.7853326,37.498 12.924,37.498 C13.0626674,37.498 13.1709996,37.5196664 13.249,37.563 C13.3270004,37.6063335 13.366,37.7146658 13.366,37.888 C13.366,38.0440008 13.3140005,38.256332 13.21,38.525 C13.1059995,38.793668 12.950001,38.928 12.742,38.928 C12.6899997,38.928 12.6293337,38.9193334 12.56,38.902 C12.4906663,38.8846666 12.4126671,38.876 12.326,38.876 C12.1526658,38.876 12.066,38.979999 12.066,39.188 L12.014,44.31 C12.014,44.4140005 11.9923336,44.5396659 11.949,44.687 C11.9056665,44.8343341 11.8493337,44.9816659 11.78,45.129 C11.7106663,45.2763341 11.6283338,45.4019995 11.533,45.506 C11.4376662,45.6100005 11.3293339,45.662 11.208,45.662 C10.9653321,45.662 10.7963338,45.6186671 10.701,45.532 C10.6056662,45.4453329 10.5493334,45.2633347 10.532,44.986 L10.272,38.928 C9.80399766,38.928 9.22767009,38.9409999 8.543,38.967 C7.85832991,38.9930001 7.1693368,39.0233332 6.476,39.058 C5.7826632,39.0926668 5.14566957,39.140333 4.565,39.201 C3.98433043,39.261667 3.57266788,39.3266663 3.33,39.396 C3.27799974,39.5346674 3.24333342,39.6949991 3.226,39.877 C3.20866658,40.0590009 3.2,40.2193326 3.2,40.358 L3.2,44.778 Z M20.942,39.318 C20.942,39.2486663 20.9766663,39.1316675 21.046,38.967 C21.1153337,38.8023325 21.2019995,38.6333342 21.306,38.46 C21.4100005,38.2866658 21.5313326,38.1350006 21.67,38.005 C21.8086674,37.8749993 21.9559992,37.81 22.112,37.81 C22.1813337,37.81 22.2636662,37.8273332 22.359,37.862 C22.4543338,37.8966668 22.5799992,37.9399997 22.736,37.992 C22.8920008,38.0440003 23.0956654,38.0873332 23.347,38.122 C23.5983346,38.1566668 23.9146648,38.174 24.296,38.174 C24.8160026,38.174 25.2883312,38.143667 25.713,38.083 C26.1376688,38.022333 26.453999,37.992 26.662,37.992 C26.7486671,37.992 26.8179997,38.0266663 26.87,38.096 C26.9220003,38.1653337 26.9609999,38.2476662 26.987,38.343 C27.0130001,38.4383338 27.0346666,38.5293329 27.052,38.616 C27.0693334,38.7026671 27.078,38.7633332 27.078,38.798 C27.078,38.8326668 27.047667,38.8933329 26.987,38.98 C26.926333,39.0666671 26.8483338,39.1489996 26.753,39.227 C26.6576662,39.3050004 26.5623338,39.374333 26.467,39.435 C26.3716662,39.495667 26.2893337,39.526 26.22,39.526 C25.890665,39.526 25.3750035,39.5519997 24.673,39.604 C23.9709965,39.6560003 23.0133394,39.682 21.8,39.682 C21.5573321,39.682 21.3536675,39.6560003 21.189,39.604 C21.0243325,39.5519997 20.942,39.4566674 20.942,39.318 Z M40.426,37.68 C40.755335,37.68 40.92,37.783999 40.92,37.992 C40.92,38.0440003 40.8723338,38.1263328 40.777,38.239 C40.6816662,38.3516672 40.5646674,38.4686661 40.426,38.59 C40.2873326,38.7113339 40.1530007,38.8153329 40.023,38.902 C39.8929994,38.9886671 39.7846671,39.032 39.698,39.032 C38.9179961,39.1013337 38.1943367,39.1403333 37.527,39.149 C36.8596633,39.1576667 36.2660026,39.1706666 35.746,39.188 C35.746,41.2680104 36.1533293,42.8323281 36.968,43.881 C37.7826707,44.9296719 39.0826577,45.454 40.868,45.454 C41.2493352,45.454 41.5049993,45.4886663 41.635,45.558 C41.7650006,45.6273337 41.83,45.7746655 41.83,46 C41.83,46.1386674 41.7000013,46.2773326 41.44,46.416 C41.1799987,46.5546674 40.72067,46.624 40.062,46.624 C39.0739951,46.624 38.2333368,46.5156677 37.54,46.299 C36.8466632,46.0823322 36.2660023,45.7920018 35.798,45.428 C35.3299977,45.0639982 34.961668,44.643669 34.693,44.167 C34.424332,43.6903309 34.2206674,43.1876693 34.082,42.659 C33.9433326,42.1303307 33.8566668,41.597336 33.822,41.06 C33.7873332,40.522664 33.77,40.0113358 33.77,39.526 C33.77,37.792658 33.9303317,36.3410058 34.251,35.171 C34.5716683,34.0009941 34.9919974,33.0563369 35.512,32.337 C36.0320026,31.6176631 36.6343299,31.1063348 37.319,30.803 C38.0036701,30.4996651 38.7099964,30.348 39.438,30.348 C40.1660036,30.348 40.6599987,30.4043328 40.92,30.517 C41.1800013,30.6296672 41.31,30.8333319 41.31,31.128 C41.31,31.5093352 41.145335,31.7 40.816,31.7 L39.282,31.7 C38.8659979,31.7 38.463002,31.7866658 38.073,31.96 C37.6829981,32.1333342 37.3276683,32.4583309 37.007,32.935 C36.6863317,33.411669 36.4133345,34.0659958 36.188,34.898 C35.9626655,35.7300042 35.8153337,36.7959935 35.746,38.096 C35.8846674,37.9746661 36.0493324,37.8750004 36.24,37.797 C36.4306676,37.7189996 36.6559987,37.68 36.916,37.68 L40.426,37.68 Z M60.43,37.628 C61.4180049,36.0333254 62.1893306,34.772338 62.744,33.845 C63.2986694,32.917662 63.7189986,32.215669 64.005,31.739 C64.2910014,31.2623309 64.4946661,30.9590006 64.616,30.829 C64.7373339,30.6989993 64.8586661,30.634 64.98,30.634 C65.0840005,30.634 65.2269991,30.6556664 65.409,30.699 C65.5910009,30.7423335 65.7729991,30.794333 65.955,30.855 C66.1370009,30.915667 66.2929994,30.9806663 66.423,31.05 C66.5530007,31.1193337 66.618,31.1799997 66.618,31.232 C66.618,31.4226676 66.6050001,31.6003325 66.579,31.765 C66.5529999,31.9296675 66.54,32.0726661 66.54,32.194 C66.54,32.731336 66.6006661,33.4203291 66.722,34.261 C66.8433339,35.1016709 66.9949991,35.9943286 67.177,36.939 C67.3590009,37.8836714 67.5583323,38.8413285 67.775,39.812 C67.9916678,40.7826715 68.1909991,41.670996 68.373,42.477 L68.828,44.492 C68.9493339,45.029336 69.01,45.3499995 69.01,45.454 C69.01,45.5580005 68.9406674,45.6533329 68.802,45.74 C68.6633326,45.8266671 68.5030009,45.900333 68.321,45.961 C68.1389991,46.021667 67.9700008,46.0736664 67.814,46.117 C67.6579992,46.1603335 67.5540003,46.182 67.502,46.182 C67.3459992,46.182 67.237667,46.1473337 67.177,46.078 C67.116333,46.0086663 67.0686668,45.8526679 67.034,45.61 C66.8953326,44.4313274 66.7306676,43.274339 66.54,42.139 C66.3493324,41.003661 66.1543343,39.9030053 65.955,38.837 C65.7556657,37.7709947 65.5606676,36.7483382 65.37,35.769 C65.1793324,34.7896618 65.0233339,33.866671 64.902,33 C63.7579943,34.7506754 62.8480034,36.163328 62.172,37.238 C61.4959966,38.312672 60.9760018,39.1663302 60.612,39.799 C60.2479982,40.4316698 60.0096672,40.9039984 59.897,41.216 C59.7843328,41.5280016 59.7193334,41.7966655 59.702,42.022 C59.6846666,42.3166681 59.6153339,42.5116662 59.494,42.607 C59.3726661,42.7023338 59.1906679,42.75 58.948,42.75 C58.7053321,42.75 58.5320005,42.6980005 58.428,42.594 C58.3239995,42.4899995 58.2026674,42.2646684 58.064,41.918 C57.9946663,41.7619992 57.8473345,41.4890019 57.622,41.099 C57.3966655,40.708998 57.1236683,40.2626692 56.803,39.76 C56.4823317,39.2573308 56.1313352,38.7200029 55.75,38.148 C55.3686648,37.5759971 54.9960018,37.021336 54.632,36.484 C54.2679982,35.946664 53.9343349,35.4483356 53.631,34.989 C53.3276652,34.5296644 53.0893342,34.1700013 52.916,33.91 C52.8639997,34.118001 52.7773339,34.5253303 52.656,35.132 C52.5346661,35.7386697 52.3960008,36.4363294 52.24,37.225 C52.0839992,38.0136706 51.9236675,38.8456623 51.759,39.721 C51.5943325,40.5963377 51.4426674,41.4109962 51.304,42.165 C51.1653326,42.9190038 51.0526671,43.564664 50.966,44.102 C50.8793329,44.639336 50.836,44.9599995 50.836,45.064 C50.836,45.2026674 50.8533332,45.3413326 50.888,45.48 C50.9226668,45.6186674 50.94,45.7573326 50.94,45.896 C50.94,45.9653337 50.9010004,46.030333 50.823,46.091 C50.7449996,46.151667 50.6193342,46.182 50.446,46.182 C50.0299979,46.182 49.6530017,46.1386671 49.315,46.052 C48.9769983,45.9653329 48.808,45.7746681 48.808,45.48 C48.808,45.3413326 48.8513329,45.1463346 48.938,44.895 C49.0246671,44.6436654 49.1459992,44.2840023 49.302,43.816 C49.3886671,43.5386653 49.5099992,43.101003 49.666,42.503 C49.8220008,41.904997 49.9866658,41.2203372 50.16,40.449 C50.3333342,39.6776628 50.5109991,38.8673376 50.693,38.018 C50.8750009,37.1686624 51.0396659,36.3626705 51.187,35.6 C51.3343341,34.8373295 51.4556662,34.157003 51.551,33.559 C51.6463338,32.960997 51.694,32.5320013 51.694,32.272 C51.694,31.9773319 51.6506671,31.7736672 51.564,31.661 C51.4773329,31.5483328 51.434,31.388001 51.434,31.18 C51.434,30.9893324 51.5639987,30.863667 51.824,30.803 C52.0840013,30.742333 52.4046648,30.712 52.786,30.712 C53.0806681,30.712 53.2756662,30.742333 53.371,30.803 C53.4663338,30.863667 53.5313332,30.9893324 53.566,31.18 C53.6180003,31.4400013 53.7653321,31.8039977 54.008,32.272 C54.2506679,32.7400023 54.5453316,33.2643304 54.892,33.845 C55.2386684,34.4256696 55.6156646,35.0323302 56.023,35.665 C56.4303354,36.2976698 56.8246648,36.8956638 57.206,37.459 C57.5873352,38.0223361 57.9339984,38.5293311 58.246,38.98 L58.948,39.994 L60.43,37.628 Z M94.484,37.966 C94.484,37.0473287 94.4710001,36.3280026 94.445,35.808 C94.4189999,35.2879974 94.406,34.8026689 94.406,34.352 C94.406,34.1093321 94.3973334,33.9056675 94.38,33.741 C94.3626666,33.5763325 94.3020005,33.4333339 94.198,33.312 C94.0246658,33.1213324 93.907667,32.9523341 93.847,32.805 C93.786333,32.6576659 93.756,32.5146674 93.756,32.376 C93.756,32.2719995 93.8339992,32.1246676 93.99,31.934 C94.1460008,31.7433324 94.327999,31.5613342 94.536,31.388 C94.744001,31.2146658 94.9563323,31.0630006 95.173,30.933 C95.3896678,30.8029993 95.5586661,30.738 95.68,30.738 C95.8706676,30.738 96.0873321,30.8116659 96.33,30.959 C96.5726679,31.1063341 96.694,31.2319995 96.694,31.336 C96.694,31.544001 96.6550004,31.7563322 96.577,31.973 C96.4989996,32.1896677 96.4513334,32.4453319 96.434,32.74 C96.3646663,33.5026705 96.3083335,34.780991 96.265,36.575 C96.2216664,38.369009 96.2,40.8259844 96.2,43.946 C96.2,44.9860052 96.1350006,45.6749983 96.005,46.013 C95.8749993,46.3510017 95.6626681,46.52 95.368,46.52 C95.2466661,46.52 95.1383338,46.4983335 95.043,46.455 C94.9476662,46.4116664 94.8653337,46.3033342 94.796,46.13 C94.7266663,45.9566658 94.6703336,45.6923351 94.627,45.337 C94.5836665,44.9816649 94.5533334,44.4876698 94.536,43.855 C94.5186666,43.2223302 94.5056667,42.4250048 94.497,41.463 C94.4883333,40.5009952 94.484,39.3353402 94.484,37.966 Z M108.066,36.614 C108.066,36.7526674 108.096333,36.8393332 108.157,36.874 C108.217667,36.9086668 108.282666,36.926 108.352,36.926 C108.438667,36.926 108.577332,36.8826671 108.768,36.796 C108.958668,36.7093329 109.279331,36.562001 109.73,36.354 C109.886001,36.2846663 110.054999,36.2066671 110.237,36.12 C110.419001,36.0333329 110.605332,35.9250006 110.796,35.795 C110.986668,35.6649993 111.159999,35.5090009 111.316,35.327 C111.472001,35.1449991 111.601999,34.9240013 111.706,34.664 C111.896668,34.0919971 111.992,33.5113363 111.992,32.922 C111.992,32.6793321 111.953,32.4800008 111.875,32.324 C111.797,32.1679992 111.706001,32.0206674 111.602,31.882 C111.567333,31.8299997 111.489334,31.7693337 111.368,31.7 C111.246666,31.6306663 111.112334,31.565667 110.965,31.505 C110.817666,31.444333 110.679001,31.3966668 110.549,31.362 C110.418999,31.3273332 110.319334,31.31 110.25,31.31 C110.180666,31.31 110.050668,31.3229999 109.86,31.349 C109.669332,31.3750001 109.474334,31.4139997 109.275,31.466 C109.075666,31.5180003 108.898001,31.5786663 108.742,31.648 C108.585999,31.7173337 108.499333,31.7953329 108.482,31.882 C108.395333,32.2806687 108.326,32.7096644 108.274,33.169 C108.222,33.6283356 108.178667,34.0789978 108.144,34.521 C108.109333,34.9630022 108.087667,35.3703315 108.079,35.743 C108.070333,36.1156685 108.066,36.405999 108.066,36.614 Z M108.352,30.088 C108.508001,30.0533332 108.663999,30.0230001 108.82,29.997 C108.976001,29.9709999 109.192665,29.958 109.47,29.958 C110.12867,29.958 110.739664,30.0533324 111.303,30.244 C111.866336,30.4346676 112.355998,30.6859984 112.772,30.998 C113.188002,31.3100016 113.517332,31.660998 113.76,32.051 C114.002668,32.4410019 114.124,32.8353313 114.124,33.234 C114.124,33.8580031 114.020001,34.3909978 113.812,34.833 C113.603999,35.2750022 113.339668,35.6433319 113.019,35.938 C112.698332,36.2326681 112.356002,36.4709991 111.992,36.653 C111.627998,36.8350009 111.290002,36.9779995 110.978,37.082 C110.561998,37.2206674 110.310667,37.3116664 110.224,37.355 C110.137333,37.3983335 110.094,37.4459997 110.094,37.498 C110.094,37.5500003 110.163333,37.6106663 110.302,37.68 C110.440667,37.7493337 110.743998,37.9313319 111.212,38.226 C111.680002,38.5206681 112.234663,38.8759979 112.876,39.292 C113.517337,39.7080021 114.210663,40.1673308 114.956,40.67 C115.510669,41.0340018 116.069664,41.3936649 116.633,41.749 C117.196336,42.1043351 117.733664,42.446665 118.245,42.776 C118.756336,43.105335 119.228665,43.3999987 119.662,43.66 C120.095336,43.9200013 120.450665,44.1366658 120.728,44.31 C121.43867,44.7086687 122.14933,44.908 122.86,44.908 C122.929334,44.908 122.994333,44.9426663 123.055,45.012 C123.115667,45.0813337 123.146,45.1766661 123.146,45.298 C123.146,45.3846671 123.072334,45.5146658 122.925,45.688 C122.777666,45.8613342 122.604334,46.0346658 122.405,46.208 C122.205666,46.3813342 122.006334,46.5329993 121.807,46.663 C121.607666,46.7930006 121.456001,46.858 121.352,46.858 C121.161332,46.858 120.771336,46.6673352 120.182,46.286 C119.592664,45.9046648 118.895004,45.4280029 118.089,44.856 C117.282996,44.2839971 116.407671,43.6513368 115.463,42.958 C114.518329,42.2646632 113.586671,41.6146697 112.668,41.008 C111.749329,40.4013303 110.887004,39.8726689 110.081,39.422 C109.274996,38.9713311 108.612003,38.6940005 108.092,38.59 C108.057333,38.9366684 108.031333,39.3223312 108.014,39.747 C107.996667,40.1716688 107.988,40.5919979 107.988,41.008 L107.988,41.71 C107.988,42.4206702 108.001,43.0013311 108.027,43.452 C108.053,43.9026689 108.079,44.2709986 108.105,44.557 C108.131,44.8430014 108.157,45.0726658 108.183,45.246 C108.209,45.4193342 108.222,45.5753326 108.222,45.714 C108.222,45.8873342 108.174334,46.0086663 108.079,46.078 C107.983666,46.1473337 107.814668,46.182 107.572,46.182 C107.450666,46.182 107.286001,46.1603335 107.078,46.117 C106.869999,46.0736664 106.666334,46.021667 106.467,45.961 C106.267666,45.900333 106.098667,45.8223338 105.96,45.727 C105.821333,45.6316662 105.752,45.5320005 105.752,45.428 C105.752,45.3413329 105.773666,45.2546671 105.817,45.168 C105.860334,45.0813329 105.912333,44.9643341 105.973,44.817 C106.033667,44.6696659 106.094333,44.4833345 106.155,44.258 C106.215667,44.0326655 106.254667,43.755335 106.272,43.426 C106.272,43.2873326 106.280667,42.9536693 106.298,42.425 C106.315333,41.8963307 106.337,41.2766702 106.363,40.566 C106.389,39.8553298 106.410667,39.1056706 106.428,38.317 C106.445333,37.5283294 106.454,36.80467 106.454,36.146 C106.454,35.8513319 106.449667,35.4786689 106.441,35.028 C106.432333,34.5773311 106.415,34.1310022 106.389,33.689 C106.363,33.2469978 106.328334,32.8570017 106.285,32.519 C106.241666,32.1809983 106.185334,31.9860003 106.116,31.934 C105.751998,31.725999 105.57,31.4660016 105.57,31.154 C105.57,30.9286655 105.743332,30.7726671 106.09,30.686 L108.352,30.088 Z M135.818,37.68 C136.147335,37.68 136.312,37.783999 136.312,37.992 C136.312,38.0440003 136.264334,38.1263328 136.169,38.239 C136.073666,38.3516672 135.956667,38.4686661 135.818,38.59 C135.679333,38.7113339 135.545001,38.8153329 135.415,38.902 C135.284999,38.9886671 135.176667,39.032 135.09,39.032 C134.309996,39.1013337 133.586337,39.1403333 132.919,39.149 C132.251663,39.1576667 131.658003,39.1706666 131.138,39.188 C131.138,41.2680104 131.545329,42.8323281 132.36,43.881 C133.174671,44.9296719 134.474658,45.454 136.26,45.454 C136.641335,45.454 136.896999,45.4886663 137.027,45.558 C137.157001,45.6273337 137.222,45.7746655 137.222,46 C137.222,46.1386674 137.092001,46.2773326 136.832,46.416 C136.571999,46.5546674 136.11267,46.624 135.454,46.624 C134.465995,46.624 133.625337,46.5156677 132.932,46.299 C132.238663,46.0823322 131.658002,45.7920018 131.19,45.428 C130.721998,45.0639982 130.353668,44.643669 130.085,44.167 C129.816332,43.6903309 129.612667,43.1876693 129.474,42.659 C129.335333,42.1303307 129.248667,41.597336 129.214,41.06 C129.179333,40.522664 129.162,40.0113358 129.162,39.526 C129.162,37.792658 129.322332,36.3410058 129.643,35.171 C129.963668,34.0009941 130.383997,33.0563369 130.904,32.337 C131.424003,31.6176631 132.02633,31.1063348 132.711,30.803 C133.39567,30.4996651 134.101996,30.348 134.83,30.348 C135.558004,30.348 136.051999,30.4043328 136.312,30.517 C136.572001,30.6296672 136.702,30.8333319 136.702,31.128 C136.702,31.5093352 136.537335,31.7 136.208,31.7 L134.674,31.7 C134.257998,31.7 133.855002,31.7866658 133.465,31.96 C133.074998,32.1333342 132.719668,32.4583309 132.399,32.935 C132.078332,33.411669 131.805334,34.0659958 131.58,34.898 C131.354666,35.7300042 131.207334,36.7959935 131.138,38.096 C131.276667,37.9746661 131.441332,37.8750004 131.632,37.797 C131.822668,37.7189996 132.047999,37.68 132.308,37.68 L135.818,37.68 Z" id="H-Empire" stroke="#FFFFFF"></path>
                        <g id="flag" transform="translate(77.000000, 0.858000)">
                            <path d="M4,46 L4,6.98654709 C4,6.44843049 3.6,6 3,6 C2.4,6 2,6.44843049 2,6.98654709 L2,46 L4,46 Z" id="Path"></path>
                            <g id="Top-Notch">
                                <circle id="Oval" cx="2.5" cy="2.5" r="2.5"></circle>
                                <ellipse id="Oval" transform="translate(1.110068, 1.109080) rotate(-49.802672) translate(-1.110068, -1.109080) " cx="1.11006822" cy="1.10908023" rx="1" ry="1"></ellipse>
                                <path d="M3.32075472,1 C4.22641509,1.67924528 4.22641509,2.81132075 3.32075472,3.49056604 C2.41509434,4.16981132 0.905660377,4.16981132 0,3.49056604" id="Path"></path>
                            </g>
                            <g id="Cloth" transform="translate(4.000000, 7.000000)">
                                <polygon id="Path" points="0.0572368421 0.0752475248 0.0572368421 11.2118812 20.6625 5.56831683"></polygon>
                            </g>
                        </g>
                    </g>
                </g>
            </g>
        </g>
    </g>
</svg>