<svg xmlns="http://www.w3.org/2000/svg" width="238.368" height="98.698" viewBox="0 0 238.368 98.698">
  <g id="Logo" transform="translate(0 0)">
    <g id="Homepage" transform="translate(-255.56 -3388.651)">
      <g id="Footer-Nav" transform="translate(0 3206)">
        <g id="Logo-2" data-name="Logo" transform="translate(255 182)">
          <g id="Group-6">
            <path id="Fill-1" d="M33.5,66.409v32.94A32.939,32.939,0,0,1,.56,66.409Z" fill="#0094d9" fill-rule="evenodd"/>
            <path id="Fill-2" d="M33.5,66.409H.56V33.47A32.94,32.94,0,0,1,33.5,66.409" fill="#2b2c7a" fill-rule="evenodd"/>
            <path id="Fill-3" d="M82.847,50A49.348,49.348,0,0,1,33.5,99.349,49.348,49.348,0,0,1,82.847,50Z" fill="#8dd7f7" fill-rule="evenodd"/>
            <path id="Fill-4" d="M82.847,50A49.349,49.349,0,0,1,33.5.651,49.348,49.348,0,0,1,82.847,50" fill="#0094d9" fill-rule="evenodd"/>
            <path id="Fill-5" d="M10.875,12.616A10.1,10.1,0,1,1,.767,22.717a10.1,10.1,0,0,1,10.108-10.1" fill="#2b2c7a" fill-rule="evenodd"/>
          </g>
          <path id="Fill-7" d="M101.877,22.652H107.2V46.282h-5.319Zm8.96,6.308a28.337,28.337,0,0,1,3.341-.7,27.455,27.455,0,0,1,4.3-.324,10.469,10.469,0,0,1,3.8.6,5.713,5.713,0,0,1,2.4,1.688,6.574,6.574,0,0,1,1.262,2.591,13.791,13.791,0,0,1,.375,3.342V46.282h-5.081V36.768a6.848,6.848,0,0,0-.648-3.478,2.643,2.643,0,0,0-2.421-1.023q-.546,0-1.159.051t-1.091.119V46.282h-5.08Zm23.758,13.674a5.069,5.069,0,0,0,1.978-.273,1.054,1.054,0,0,0,.58-1.057,1.3,1.3,0,0,0-.75-1.074,14.253,14.253,0,0,0-2.284-1.04,23.378,23.378,0,0,1-2.165-.921,6.364,6.364,0,0,1-1.654-1.142,4.619,4.619,0,0,1-1.057-1.585,5.872,5.872,0,0,1-.375-2.216,4.793,4.793,0,0,1,1.875-3.99,8.157,8.157,0,0,1,5.149-1.466,16.523,16.523,0,0,1,3.137.29,14.6,14.6,0,0,1,2.387.631l-.886,3.955A18.615,18.615,0,0,0,138.6,32.2a10.478,10.478,0,0,0-2.336-.239q-2.387,0-2.387,1.33a1.377,1.377,0,0,0,.1.546,1.165,1.165,0,0,0,.409.46,5.707,5.707,0,0,0,.835.477,14.4,14.4,0,0,0,1.347.568,20.72,20.72,0,0,1,2.762,1.222,6.609,6.609,0,0,1,1.722,1.3,4.024,4.024,0,0,1,.887,1.551,6.866,6.866,0,0,1,.256,1.972A4.557,4.557,0,0,1,140.2,45.4a9.977,9.977,0,0,1-5.644,1.358,15.924,15.924,0,0,1-6.172-1.091l.853-4.126a16.669,16.669,0,0,0,2.66.8A12.926,12.926,0,0,0,134.595,42.634Zm9.743-18.755,5.081-.818v5.285h6.1v4.228h-6.1v6.308a5.015,5.015,0,0,0,.563,2.557,2.414,2.414,0,0,0,2.268.955,9.709,9.709,0,0,0,1.688-.154,8.708,8.708,0,0,0,1.585-.426l.716,3.955a14.444,14.444,0,0,1-2.046.648,11.915,11.915,0,0,1-2.762.273,9.1,9.1,0,0,1-3.444-.563A5.4,5.4,0,0,1,145.8,44.56a5.838,5.838,0,0,1-1.142-2.438,14.39,14.39,0,0,1-.324-3.171Zm20.007,18.857q.751,0,1.432-.034a9.892,9.892,0,0,0,1.091-.1V38.746q-.307-.068-.921-.136a10.3,10.3,0,0,0-1.125-.068,10.09,10.09,0,0,0-1.347.085,3.527,3.527,0,0,0-1.108.324,1.9,1.9,0,0,0-.75.648,1.8,1.8,0,0,0-.273,1.023,1.743,1.743,0,0,0,.8,1.654A4.429,4.429,0,0,0,164.345,42.736Zm-.409-14.867a11.762,11.762,0,0,1,3.751.511,5.823,5.823,0,0,1,2.4,1.466,5.389,5.389,0,0,1,1.279,2.319,11.438,11.438,0,0,1,.375,3.035V45.771q-1.091.239-3.035.562a29.158,29.158,0,0,1-4.706.324,14.934,14.934,0,0,1-3.154-.307,6.848,6.848,0,0,1-2.438-1.006,4.6,4.6,0,0,1-1.568-1.824,6.3,6.3,0,0,1-.546-2.762,5.232,5.232,0,0,1,.631-2.66,4.849,4.849,0,0,1,1.688-1.739,7.62,7.62,0,0,1,2.421-.938,13.576,13.576,0,0,1,2.83-.29,16.048,16.048,0,0,1,1.756.085,7.8,7.8,0,0,1,1.245.222v-.477a2.811,2.811,0,0,0-.784-2.08,3.8,3.8,0,0,0-2.728-.784,17.371,17.371,0,0,0-2.557.188,10.966,10.966,0,0,0-2.182.528l-.648-4.092q.443-.137,1.108-.29t1.449-.273q.784-.119,1.654-.2T163.936,27.869Zm10.937,1.091a28.337,28.337,0,0,1,3.342-.7,27.455,27.455,0,0,1,4.3-.324,10.469,10.469,0,0,1,3.8.6,5.712,5.712,0,0,1,2.4,1.688,6.572,6.572,0,0,1,1.262,2.591,13.785,13.785,0,0,1,.375,3.342V46.282h-5.081V36.768a6.848,6.848,0,0,0-.648-3.478,2.643,2.643,0,0,0-2.421-1.023q-.546,0-1.159.051t-1.091.119V46.282h-5.081Zm18.439-5.081,5.081-.818v5.285h6.1v4.228h-6.1v6.308a5.015,5.015,0,0,0,.563,2.557,2.414,2.414,0,0,0,2.267.955,9.709,9.709,0,0,0,1.688-.154,8.711,8.711,0,0,0,1.585-.426l.716,3.955a14.443,14.443,0,0,1-2.046.648,11.916,11.916,0,0,1-2.762.273,9.094,9.094,0,0,1-3.444-.563,5.4,5.4,0,0,1-2.182-1.569,5.838,5.838,0,0,1-1.142-2.438,14.39,14.39,0,0,1-.324-3.171Z" fill="#2b2c7a" fill-rule="evenodd"/>
          <path id="Fill-8" d="M108.941,76.871q-1.415-2.975-2.785-6.177t-2.608-6.337c-.818-2.091-1.58-4.092-2.268-6s-1.29-3.614-1.79-5.115h5.865c.443,1.37.932,2.841,1.478,4.416s1.091,3.154,1.654,4.717,1.1,3.069,1.614,4.507,1.006,2.671,1.478,3.717c.443-1.04.932-2.273,1.455-3.711s1.074-2.932,1.631-4.5,1.114-3.137,1.654-4.717,1.034-3.052,1.483-4.427h5.66c-.529,1.506-1.137,3.217-1.83,5.121s-1.438,3.9-2.256,6-1.682,4.206-2.591,6.343-1.83,4.194-2.768,6.172Zm30.641-9a11.657,11.657,0,0,1-.614,3.87,8.4,8.4,0,0,1-1.773,3,7.978,7.978,0,0,1-2.779,1.926,9.919,9.919,0,0,1-7.229,0,7.982,7.982,0,0,1-2.779-1.926,8.821,8.821,0,0,1-1.807-3,11.1,11.1,0,0,1-.648-3.87,10.71,10.71,0,0,1,.665-3.853,8.737,8.737,0,0,1,1.841-2.967,8.263,8.263,0,0,1,2.8-1.909,9,9,0,0,1,3.529-.682,9.092,9.092,0,0,1,3.563.682,8.09,8.09,0,0,1,2.779,1.909,8.669,8.669,0,0,1,1.807,2.967A10.961,10.961,0,0,1,139.581,67.869Zm-5.183,0a6.389,6.389,0,0,0-.938-3.7,3.066,3.066,0,0,0-2.677-1.347,3.109,3.109,0,0,0-2.694,1.347,6.3,6.3,0,0,0-.955,3.7,6.465,6.465,0,0,0,.955,3.734,3.086,3.086,0,0,0,2.694,1.381,3.044,3.044,0,0,0,2.677-1.381A6.557,6.557,0,0,0,134.4,67.869Zm22.94,8.388a28.307,28.307,0,0,1-3.342.7,27.453,27.453,0,0,1-4.3.324,10.2,10.2,0,0,1-3.8-.614,5.769,5.769,0,0,1-2.4-1.722,6.719,6.719,0,0,1-1.262-2.642,14.218,14.218,0,0,1-.375-3.376V58.935h5.081v9.377a7.27,7.27,0,0,0,.648,3.546,2.578,2.578,0,0,0,2.421,1.091q.545,0,1.159-.051t1.091-.119V58.935h5.081Zm2.447-8.354a10.57,10.57,0,0,1,.631-3.666,8.579,8.579,0,0,1,4.723-5.029,9.566,9.566,0,0,1,3.887-.75,12.559,12.559,0,0,1,2.626.256,12.779,12.779,0,0,1,2.319.733L172.913,63.5a12.848,12.848,0,0,0-1.568-.477,8.2,8.2,0,0,0-1.91-.2,4.025,4.025,0,0,0-3.359,1.4,5.757,5.757,0,0,0-1.108,3.683,5.962,5.962,0,0,0,1.04,3.751,4.355,4.355,0,0,0,3.631,1.33,12.459,12.459,0,0,0,1.978-.171,8.4,8.4,0,0,0,1.944-.546l.716,4.16a11.936,11.936,0,0,1-2.216.648,14.634,14.634,0,0,1-2.933.273,11.041,11.041,0,0,1-4.228-.733,7.967,7.967,0,0,1-2.915-1.995,7.786,7.786,0,0,1-1.671-2.984A12.672,12.672,0,0,1,159.785,67.9Zm16.427,8.968V51.229l5.081-.818V59a10.551,10.551,0,0,1,1.313-.324,8.247,8.247,0,0,1,1.552-.154,9.591,9.591,0,0,1,3.631.6,5.641,5.641,0,0,1,2.319,1.688,6.526,6.526,0,0,1,1.227,2.591,14.405,14.405,0,0,1,.358,3.342V76.871h-5.081V67.357a7.006,7.006,0,0,0-.631-3.478,2.522,2.522,0,0,0-2.336-1.023,6.507,6.507,0,0,0-1.279.119q-.6.119-1.074.256V76.871Zm17.757-8.832a10.969,10.969,0,0,1,.733-4.177,8.955,8.955,0,0,1,1.927-2.983,8.018,8.018,0,0,1,2.745-1.807,8.6,8.6,0,0,1,3.188-.614,7.923,7.923,0,0,1,6.035,2.336q2.217,2.336,2.216,6.871,0,.443-.034.972t-.068.938H199.186a3.376,3.376,0,0,0,1.466,2.489,5.893,5.893,0,0,0,3.478.921,14.664,14.664,0,0,0,2.745-.256,10.352,10.352,0,0,0,2.2-.631l.682,4.126a6.984,6.984,0,0,1-1.091.409,14.308,14.308,0,0,1-1.517.358q-.835.153-1.79.256a17.883,17.883,0,0,1-1.91.1,11.307,11.307,0,0,1-4.211-.716,8.2,8.2,0,0,1-2.967-1.961,7.779,7.779,0,0,1-1.739-2.949A11.688,11.688,0,0,1,193.969,68.039ZM205.9,66.1a5.242,5.242,0,0,0-.222-1.261,3.155,3.155,0,0,0-.58-1.091,3.086,3.086,0,0,0-.989-.784,3.223,3.223,0,0,0-1.483-.307,3.412,3.412,0,0,0-1.466.29,3.032,3.032,0,0,0-1.023.767,3.435,3.435,0,0,0-.631,1.108,7.294,7.294,0,0,0-.324,1.279Zm18.166-2.659q-.682-.17-1.6-.358a9.907,9.907,0,0,0-1.978-.187,9.147,9.147,0,0,0-1.142.085,6.725,6.725,0,0,0-1.006.187V76.871h-5.08V59.889a30.531,30.531,0,0,1,3.222-.9,18.579,18.579,0,0,1,4.143-.426q.409,0,.989.051t1.159.136q.58.085,1.159.2a5.466,5.466,0,0,1,.989.29Zm7.255,9.786a5.069,5.069,0,0,0,1.978-.273,1.054,1.054,0,0,0,.58-1.057,1.3,1.3,0,0,0-.75-1.074,14.235,14.235,0,0,0-2.284-1.04,23.378,23.378,0,0,1-2.165-.921,6.364,6.364,0,0,1-1.654-1.142,4.618,4.618,0,0,1-1.057-1.585,5.873,5.873,0,0,1-.375-2.216,4.793,4.793,0,0,1,1.875-3.99,8.158,8.158,0,0,1,5.149-1.466,16.532,16.532,0,0,1,3.137.29,14.616,14.616,0,0,1,2.387.631l-.886,3.955a18.624,18.624,0,0,0-1.927-.546,10.476,10.476,0,0,0-2.336-.239q-2.387,0-2.387,1.33a1.375,1.375,0,0,0,.1.546,1.165,1.165,0,0,0,.409.46,5.7,5.7,0,0,0,.835.477,14.411,14.411,0,0,0,1.347.568,20.746,20.746,0,0,1,2.762,1.222,6.611,6.611,0,0,1,1.722,1.3A4.023,4.023,0,0,1,238.672,70a6.864,6.864,0,0,1,.256,1.972,4.556,4.556,0,0,1-1.995,4.018,9.977,9.977,0,0,1-5.643,1.358,15.921,15.921,0,0,1-6.172-1.091l.853-4.126a16.669,16.669,0,0,0,2.66.8A12.926,12.926,0,0,0,231.324,73.222Z" fill="#0094d9" fill-rule="evenodd"/>
          <path id="Stroke-9" d="M93.776,13.625v72.75" fill="none" stroke="#93193d" stroke-width="2" fill-rule="evenodd"/>
          <path id="Stroke-10" d="M93.776,13.625v72.75" fill="none" stroke="#0094d9" stroke-width="2" fill-rule="evenodd"/>
        </g>
      </g>
    </g>
  </g>
</svg>
