<svg id="Logo" xmlns="http://www.w3.org/2000/svg" width="107.26" height="40" viewBox="0 0 107.26 40">
  <g id="Group_29" data-name="Group 29">
    <path id="Path_129" data-name="Path 129" d="M151.552,485.918a9.667,9.667,0,1,1-9.667-9.667A9.67,9.67,0,0,1,151.552,485.918Zm-9.667,6.882a6.9,6.9,0,1,0-6.922-6.882A6.9,6.9,0,0,0,141.885,492.8Z" transform="translate(-90.514 -468.634)" fill="#00274d"/>
    <g id="Group_27" data-name="Group 27">
      <path id="Path_130" data-name="Path 130" d="M120.941,494.557a1.9,1.9,0,0,1-1.262-.656c-.045-.048-.088-.092-.136-.145l-5.646-6.3,2.493-2.668,1.867-2h0l0,0,.266-.285a.867.867,0,0,1,.622-.267h.889V479.45h-1.193a2.767,2.767,0,0,0-1.934.785l-.147.156-2.348,2.477-7.013,7.407V473.842a2.783,2.783,0,0,0-2.785-2.782h-1.322v2.782h.649a.9.9,0,0,1,.674.676v22.8H107.4v-3.055l4.6-4.835,5.491,6.151a4.886,4.886,0,0,0,2.869,1.667,2.813,2.813,0,0,0,.622.072h.34v-2.745C121.233,494.569,121.026,494.564,120.941,494.557Z" transform="translate(-103.294 -471.06)" fill="#00274d"/>
      <path id="Path_131" data-name="Path 131" d="M114.949,486.676h0l0,0Z" transform="translate(-97.847 -463.762)" fill="#00274d"/>
    </g>
    <path id="Path_132" data-name="Path 132" d="M164.269,491.88H163.5a.856.856,0,0,1-.622-.267l-.264-.283-.006,0-.091-.1-5.24-5.918,4.274-4.838.377-.4,0,0,.267-.283a.85.85,0,0,1,.619-.269h.891v-2.784h-1.194c-.069,0-.135,0-.2.01a2.763,2.763,0,0,0-1.734.775l-.145.154-.941.995-1.356,1.532-2.676,3.024-2.676-3.024-1.356-1.532-.939-.995-.147-.154a2.748,2.748,0,0,0-1.729-.775c-.069-.006-.135-.01-.2-.01h-1.191v2.784h.888a.862.862,0,0,1,.622.269l.266.283,0,0,.379.4,4.269,4.838-5.234,5.918-.094.1,0,0-.267.283a.844.844,0,0,1-.619.267h-.891v2.785h1.194c.075,0,.147-.006.222-.012a2.768,2.768,0,0,0,1.714-.773l.147-.153.283-.3,1.991-2.242,3.374-3.789,3.374,3.789,2,2.242.285.3.145.153a2.76,2.76,0,0,0,1.711.773c.075.006.15.012.225.012h1.192V491.88Z" transform="translate(-84.171 -468.411)" fill="#00274d"/>
    <path id="Path_133" data-name="Path 133" d="M178.34,491.88h-.773a.861.861,0,0,1-.622-.267l-.263-.283-.006,0-.092-.1-5.239-5.918,4.273-4.838.379-.4,0,0,.266-.283a.855.855,0,0,1,.619-.269h.892v-2.784h-1.2c-.066,0-.135,0-.2.01a2.756,2.756,0,0,0-1.733.775l-.147.154-.939.995-1.356,1.532-2.677,3.024-2.678-3.024-1.356-1.532-.942-.995-.144-.154a2.763,2.763,0,0,0-1.733-.775c-.066-.006-.135-.01-.2-.01h-1.193v2.784h.889a.862.862,0,0,1,.622.269l.266.283,0,0,.379.4,4.273,4.838-5.239,5.918-.1.1v0l-.264.283a.861.861,0,0,1-.622.267H160.6v2.785h1.194c.075,0,.15-.006.22-.012a2.761,2.761,0,0,0,1.714-.773l.147-.153.283-.3,2-2.242,3.373-3.789,3.372,3.789,2,2.242.283.3.147.153a2.753,2.753,0,0,0,1.711.773c.073.006.148.012.223.012h1.194V491.88Z" transform="translate(-78.068 -468.411)" fill="#00274d"/>
    <path id="Path_134" data-name="Path 134" d="M136.385,492.141h-.395a.892.892,0,0,1-.66-.644v-9.021c0-4.33-3.47-6.225-6.556-6.225a8.612,8.612,0,0,0-7.246,3.473h0c0-.041,0-.081-.006-.122a2.781,2.781,0,0,0-2.776-2.663h-1.322v2.785h.646a.9.9,0,0,1,.676.674v2.11h0v12.38h2.785v-8.275c0-4.486,2.961-7.617,6.594-7.617,2.012,0,4.462.734,4.462,3.479v7.993h-.006v1.673a2.746,2.746,0,0,0,2.745,2.747h1.3v-2.747Z" transform="translate(-97.051 -468.634)" fill="#00274d"/>
    <g id="Group_28" data-name="Group 28" transform="translate(103.074 2.119)">
      <path id="Path_135" data-name="Path 135" d="M176.763,476.331a1.93,1.93,0,0,0,1.894-1.932,1.894,1.894,0,1,0-3.789,0A1.93,1.93,0,0,0,176.763,476.331Z" transform="translate(-174.471 -472.504)" fill="#00274d"/>
      <path id="Path_136" data-name="Path 136" d="M178.7,479.388a2.781,2.781,0,0,0-2.778-2.659h-1l-.006,0v0H174.6v2.784h.644a.893.893,0,0,1,.674.669v14.484H178.7V479.391Z" transform="translate(-174.598 -470.531)" fill="#00274d"/>
    </g>
  </g>
  <g id="Group_30" data-name="Group 30" transform="translate(14.942 35.652)">
    <path id="Path_137" data-name="Path 137" d="M113.812,499.1a1.656,1.656,0,0,0,1.071.453.649.649,0,0,0,.726-.619c0-.911-2.037-.716-2.037-2.006a1.246,1.246,0,0,1,1.357-1.175,1.721,1.721,0,0,1,1.192.424l-.267.487a1.483,1.483,0,0,0-.924-.364.688.688,0,0,0-.762.613c0,.872,2.037.64,2.037,2a1.211,1.211,0,0,1-1.334,1.184,1.969,1.969,0,0,1-1.394-.553Z" transform="translate(-113.477 -495.752)" fill="#00274d"/>
    <path id="Path_138" data-name="Path 138" d="M118.485,495.752a2.12,2.12,0,0,1,2.157,2.144,2.16,2.16,0,1,1-4.318,0A2.124,2.124,0,0,1,118.485,495.752Zm0,3.806a1.589,1.589,0,0,0,1.548-1.663,1.552,1.552,0,1,0-3.1,0A1.592,1.592,0,0,0,118.485,499.558Z" transform="translate(-112.146 -495.752)" fill="#00274d"/>
    <path id="Path_139" data-name="Path 139" d="M122.4,495.752a2.171,2.171,0,0,1,1.532.553l-.293.442a1.913,1.913,0,0,0-1.215-.459,1.529,1.529,0,0,0-1.554,1.608,1.58,1.58,0,0,0,1.561,1.663,1.9,1.9,0,0,0,1.3-.547l.315.421a2.249,2.249,0,0,1-1.63.668,2.174,2.174,0,0,1-.013-4.348Z" transform="translate(-110.307 -495.752)" fill="#00274d"/>
    <path id="Path_140" data-name="Path 140" d="M123.991,495.8h.59V500h-.59Z" transform="translate(-108.869 -495.729)" fill="#00274d"/>
    <path id="Path_141" data-name="Path 141" d="M128.03,498.8h-1.585L126.028,500h-.607l1.513-4.2h.619l1.513,4.2h-.613Zm-.792-2.417s-.1.381-.167.594l-.47,1.335h1.274l-.464-1.335c-.072-.213-.161-.594-.161-.594Z" transform="translate(-108.257 -495.729)" fill="#00274d"/>
    <path id="Path_142" data-name="Path 142" d="M128.933,495.8h.588v3.693H131.4V500h-2.471Z" transform="translate(-106.715 -495.729)" fill="#00274d"/>
    <path id="Path_143" data-name="Path 143" d="M131.685,495.8h.59v3.693h1.883V500h-2.473Z" transform="translate(-105.511 -495.729)" fill="#00274d"/>
    <path id="Path_144" data-name="Path 144" d="M135.29,498.225l-1.412-2.424h.668l.779,1.381a5.715,5.715,0,0,1,.257.531h.012s.125-.293.257-.531l.767-1.381h.668l-1.406,2.424V500h-.59Z" transform="translate(-104.559 -495.729)" fill="#00274d"/>
    <path id="Path_145" data-name="Path 145" d="M138.877,495.8h1.287a2.188,2.188,0,0,1,.786.094,1.25,1.25,0,0,1-.048,2.276v.012a1.215,1.215,0,0,1,.126.192l.894,1.63h-.668l-.888-1.674h-.9V500h-.59Zm1.435,2.021a.7.7,0,0,0,.745-.763.691.691,0,0,0-.333-.65,1.154,1.154,0,0,0-.578-.1h-.679v1.509Z" transform="translate(-102.37 -495.729)" fill="#00274d"/>
    <path id="Path_146" data-name="Path 146" d="M142.084,495.8h2.442v.512h-1.852v1.316h1.507v.514h-1.507v1.351h1.953V500h-2.543Z" transform="translate(-100.962 -495.729)" fill="#00274d"/>
    <path id="Path_147" data-name="Path 147" d="M147.638,495.8l.82,3.086c.06.233.091.445.091.445h.012a2.765,2.765,0,0,1,.076-.445l.775-3.086h.608l-1.1,4.2h-.685l-.726-2.728c-.072-.267-.125-.594-.125-.594h-.012s-.054.327-.126.594L146.516,500h-.685l-1.071-4.2h.608l.745,3.086a4.246,4.246,0,0,1,.076.445h.012s.031-.211.09-.445l.822-3.086Z" transform="translate(-99.826 -495.729)" fill="#00274d"/>
    <path id="Path_148" data-name="Path 148" d="M151.631,498.8h-1.585L149.628,500h-.609l1.514-4.2h.619l1.513,4.2h-.613Zm-.794-2.417s-.1.381-.167.594l-.47,1.335h1.275l-.467-1.335c-.069-.213-.16-.594-.16-.594Z" transform="translate(-97.943 -495.729)" fill="#00274d"/>
    <path id="Path_149" data-name="Path 149" d="M152.531,495.8h1.287a2.172,2.172,0,0,1,.785.094,1.249,1.249,0,0,1-.046,2.276v.012a1.407,1.407,0,0,1,.123.192l.894,1.63h-.668l-.885-1.674h-.9V500h-.591Zm1.437,2.021a.7.7,0,0,0,.745-.763.693.693,0,0,0-.336-.65,1.143,1.143,0,0,0-.577-.1h-.678v1.509Z" transform="translate(-96.399 -495.729)" fill="#00274d"/>
    <path id="Path_150" data-name="Path 150" d="M155.738,495.8h1.4a2.1,2.1,0,1,1,0,4.2h-1.4Zm1.353,3.693a1.591,1.591,0,0,0,0-3.181h-.762v3.181Z" transform="translate(-95.005 -495.729)" fill="#00274d"/>
    <path id="Path_151" data-name="Path 151" d="M159.346,495.8h.59V500h-.59Z" transform="translate(-93.595 -495.729)" fill="#00274d"/>
    <path id="Path_152" data-name="Path 152" d="M161.135,495.8h.581l1.872,2.734c.154.226.352.607.352.607h.012s-.044-.376-.044-.607V495.8h.591V500h-.58l-1.874-2.728c-.156-.233-.352-.613-.352-.613h-.012s.04.376.04.613V500h-.587Z" transform="translate(-92.759 -495.729)" fill="#00274d"/>
    <path id="Path_153" data-name="Path 153" d="M166.765,495.752a2.282,2.282,0,0,1,1.53.508l-.3.44a1.933,1.933,0,0,0-1.184-.412,1.637,1.637,0,0,0-.037,3.271,1.715,1.715,0,0,0,1.191-.525v-.608h-.685v-.509h1.222v2.112h-.519v-.261c0-.088.006-.181.006-.181h-.012a1.807,1.807,0,0,1-1.293.514,2.081,2.081,0,0,1-2.066-2.179A2.119,2.119,0,0,1,166.765,495.752Z" transform="translate(-91.13 -495.752)" fill="#00274d"/>
  </g>
</svg>
