<svg xmlns="http://www.w3.org/2000/svg" xmlns:xlink="http://www.w3.org/1999/xlink" width="200" height="120" viewBox="0 0 200 120">
  <defs>
    <clipPath id="clip-path">
      <rect id="Rectangle_15" data-name="Rectangle 15" width="200" height="120" transform="translate(107 308)" fill="#f0f0f0"/>
    </clipPath>
  </defs>
  <g id="Mask_Group_23" data-name="Mask Group 23" transform="translate(-107 -308)" clip-path="url(#clip-path)">
    <g id="Sindor_hub_Ent-01" data-name="Sindor hub Ent-01" transform="translate(98.976 275.387)">
      <g id="Group_47" data-name="Group 47" transform="translate(15.411)">
        <g id="Group_45" data-name="Group 45">
          <path id="Path_63" data-name="Path 63" d="M126.536,78.725h0a8.066,8.066,0,0,1-7.7,5.679H88.811L93.8,68.272h25.028A8.066,8.066,0,0,1,126.536,78.725Z" fill="#e70042"/>
          <path id="Path_64" data-name="Path 64" d="M134.44,53.193h0a9.466,9.466,0,0,1-9.042,6.668H96.407l5.864-18.932H125.4A9.465,9.465,0,0,1,134.44,53.193Z" fill="#e70042"/>
          <path id="Path_65" data-name="Path 65" d="M117.321,108.49h0a7.107,7.107,0,0,1-6.789,5.006H79.806l4.4-14.213h26.328A7.105,7.105,0,0,1,117.321,108.49Z" fill="#e70042"/>
        </g>
        <g id="Group_46" data-name="Group 46">
          <path id="Path_66" data-name="Path 66" d="M92.3,59.382a1.1,1.1,0,0,1-.215-.661,8.17,8.17,0,0,0-4.5-6.171,13.48,13.48,0,0,0-6.2-1.662,19.8,19.8,0,0,0-5.952.475,8.871,8.871,0,0,0-5.4,3.528,5.958,5.958,0,0,0,2.47,8.787,24.112,24.112,0,0,0,6.448,2.215c2.367.5,4.749.93,7.127,1.387.989.189,1.978.4,2.976.534.6.081.684.31.51.842-.528,1.609-1.022,3.229-1.525,4.846q-1.561,5.026-3.114,10.055c-.3.961-.308.956-1.261.7-2.554-.686-5.167-1.106-7.754-1.637-3.949-.807-7.956-1.382-11.75-2.84a22.31,22.31,0,0,1-10.578-7.673A18.847,18.847,0,0,1,50.2,62.894a23.269,23.269,0,0,1,1.459-11.349,20.929,20.929,0,0,1,6.855-8.771,29.589,29.589,0,0,1,12.855-5.642,48.25,48.25,0,0,1,21.22.9,27.454,27.454,0,0,1,5.266,2.13.528.528,0,0,1,.288.738Q95.919,48,93.717,55.108c-.376,1.211-.727,2.429-1.1,3.644A1.266,1.266,0,0,1,92.3,59.382Z" fill="#231f20"/>
          <path id="Path_67" data-name="Path 67" d="M57.688,90.629c2.785,0,5.572,0,8.358,0,.4,0,.7.055.793.532a8.706,8.706,0,0,0,4.728,5.967,15.439,15.439,0,0,0,7.218,2c1.334.04,1.317.064.921,1.328-.875,2.787-1.708,5.587-2.561,8.38-.418,1.369-.848,2.736-1.268,4.1-.112.365-.279.591-.725.56a41.921,41.921,0,0,1-10.55-2.017,25.089,25.089,0,0,1-11.1-7.086,19.472,19.472,0,0,1-4.734-11.125c-.068-.661-.068-1.33-.147-1.991-.062-.527.156-.662.644-.661,2.806.015,5.613.007,8.418.007C57.688,90.624,57.688,90.626,57.688,90.629Z" fill="#231f20"/>
        </g>
      </g>
      <text id="SINDOR_HUB_ENTERPRISE" data-name="SINDOR HUB ENTERPRISE" transform="translate(11.024 134.14)" font-size="15" font-family="Helvetica"><tspan x="0" y="0">SINDOR HUB ENTERPRISE</tspan></text>
      <text id="where_quality_costs_less" data-name="where quality costs less" transform="translate(39.024 145.885)" fill="#e70042" font-size="13" font-family="Helvetica"><tspan x="0" y="0">where quality costs less</tspan></text>
    </g>
  </g>
</svg>
